<svg xmlns="http://www.w3.org/2000/svg" xmlns:xlink="http://www.w3.org/1999/xlink" viewBox="0 0 2319.83 1574.27" xmlns:v="https://vecta.io/nano"><g fill="#fff"><path d="M657.99 1400.65v-40.92h-8.18v24.26l-9.41-24.26h-10.47v40.92h8.19v-24.26l9.41 24.26zm35.07-23.21h-17.54v-9.53h19.88v-8.18h-28.06v17.71 23.21h8.18v-15.03h17.54zm21.63 23.21h8.18v-32.74h9.94v-8.18h-9.94-18.12v8.18h9.94zm-607.31 41.9l-7.89 23.04h-.53l-7.95-23.04v-12.68H87.5v13.33l9.59 27.59h4.21l9.59-27.59v-13.33h-3.51z"/><use xlink:href="#B"/><path d="M172.85 1467.28h-.53l-12.86-37.41h-6.49v40.92h3.51v-37.41h.52l12.86 37.41h6.49v-40.92h-3.5zm26.88-37.41h-4.68c-5.14 0-9.35 4.15-9.35 9.35v22.16c0 5.14 4.21 9.41 9.35 9.41h4.68c5.2 0 9.35-4.27 9.35-9.41v-3.21-8.54h-12.27v3.51h8.77v5.03 3.21c0 3.21-2.63 5.85-5.85 5.85h-4.68c-3.21 0-5.84-2.63-5.84-5.85v-22.16a5.79 5.79 0 0 1 5.84-5.85h4.68a5.79 5.79 0 0 1 5.85 5.85v3.22h3.51v-3.22a9.31 9.31 0 0 0-9.36-9.35z"/><use xlink:href="#C"/><use xlink:href="#D"/><path d="M297.93 1429.87h-10.52-3.51v40.92h3.51v-18.71h7.54l8.48 18.71h3.86l-8.54-18.76c4.79-.35 8.54-4.38 8.54-9.29v-3.51c0-5.21-4.15-9.36-9.36-9.36zm5.85 12.86a5.79 5.79 0 0 1-5.85 5.85h-10.52v-15.2h10.52a5.79 5.79 0 0 1 5.85 5.85v3.5zm26.89-12.86h-10.52-3.51v40.92h2.63 11.4c5.14 0 9.35-4.27 9.35-9.41v-22.16c0-5.2-4.21-9.35-9.35-9.35zm5.84 31.51c0 3.21-2.63 5.85-5.85 5.85h-10.52v-33.85h10.52a5.79 5.79 0 0 1 5.85 5.85v22.15zm12.86-31.51v3.51h9.94v33.9h-9.94v3.51h9.94 13.44v-3.51h-9.94v-33.9h9.94v-3.51h-9.94z"/><use xlink:href="#D" x="130.93"/><use xlink:href="#B" x="327.33"/><path d="M494.33 1429.87h-10.52-3.51v40.92h3.51v-18.71h7.54l8.48 18.71h3.86l-8.54-18.76c4.79-.35 8.54-4.38 8.54-9.29v-3.51a9.32 9.32 0 0 0-9.36-9.36zm5.85 12.86a5.79 5.79 0 0 1-5.85 5.85h-10.52v-15.2h10.52a5.79 5.79 0 0 1 5.85 5.85v3.5zm12.85-12.86v3.51h9.94v37.41h3.51v-37.41h9.94v-3.51h-9.94zm55.42-14.15h-4.85l-7.95 8.89h3.97zm-22.68 14.15v3.51h9.94v33.9h-9.94v3.51h9.94 13.44v-3.51h-9.94v-33.9h9.94v-3.51h-9.94zm36.82 8.53c0-3.04 2.4-5.03 6.2-5.03h2.75c3.45 0 6.25 2.75 6.25 6.2v1.75h3.51v-1.75c0-5.38-4.38-9.7-9.76-9.7h-2.75c-5.73 0-9.7 3.45-9.7 8.54 0 10.35 19.29 14.03 19.29 23.27 0 3.22-2.63 5.61-6.26 5.61h-3.92c-3.39 0-6.2-2.81-6.2-6.2v-2.63h-3.51v2.63a9.67 9.67 0 0 0 9.7 9.7h3.92c5.55 0 9.76-3.97 9.76-9.12.01-11.69-19.28-15.84-19.28-23.27zm28.64-8.53v3.51h9.94v37.41h3.51v-37.41h9.94v-3.51h-9.94zm32.74 0v3.51h9.93v33.9h-9.93v3.51h9.93 13.45v-3.51h-9.94v-33.9h9.94v-3.51h-9.94z"/><use xlink:href="#E"/><use xlink:href="#D" x="458.26"/><path d="M330.08 1515.97h-3.51v7.6h-7.6v3.51h7.6v7.6h3.51v-7.6h7.6v-3.51h-7.6z"/><use xlink:href="#E" x="-294.6" y="70.14"/><path d="M428.86 1500.01h-4.68c-5.14 0-9.35 4.15-9.35 9.35v22.16c0 5.14 4.21 9.41 9.35 9.41h4.68c5.2 0 9.35-4.27 9.35-9.41v-22.16c0-5.2-4.14-9.35-9.35-9.35zm5.85 31.51c0 3.21-2.63 5.85-5.85 5.85h-4.68c-3.21 0-5.84-2.63-5.84-5.85v-22.16a5.79 5.79 0 0 1 5.84-5.85h4.68a5.79 5.79 0 0 1 5.85 5.85v22.16zm24.55-13.97l-7.25-17.54h-4.44v40.92h3.5v-34.72l7.13 16.83h2.11l7.13-16.83v34.72h3.51v-40.92h-4.39z"/><use xlink:href="#C" x="261.86" y="70.14"/><path d="M532.91 1537.42h-.53l-12.86-37.41h-6.49v40.92h3.51v-37.41h.52l12.87 37.41h6.49v-40.92h-3.51zm12.86-37.41v3.51h9.93v33.9h-9.93v3.51h9.93 13.45v-3.51h-9.94v-33.9h9.94v-3.51h-9.94zm46.76 0h-10.52-3.51v40.92h2.63 11.4c5.14 0 9.35-4.27 9.35-9.41v-22.16c0-5.2-4.21-9.35-9.35-9.35zm5.84 31.51c0 3.21-2.63 5.85-5.85 5.85H582v-33.85h10.52a5.79 5.79 0 0 1 5.85 5.85v22.15z"/><use xlink:href="#D" x="360.06" y="70.14"/><path d="M657.99 1500.01h-10.52-3.51v40.92h2.63 11.4c5.14 0 9.35-4.27 9.35-9.41v-22.16c.01-5.2-4.2-9.35-9.35-9.35zm5.85 31.51c0 3.21-2.63 5.85-5.85 5.85h-10.52v-33.85h10.52a5.79 5.79 0 0 1 5.85 5.85v22.15zm12.86-28v17.42 19.99h23.38v-3.51h-19.87v-16.48h17.53v-3.51h-17.53v-13.91h19.87v-3.51H676.7zm36.82 5.03c0-3.04 2.4-5.03 6.2-5.03h2.75c3.45 0 6.25 2.75 6.25 6.2v1.75h3.51v-1.75c0-5.38-4.38-9.7-9.76-9.7h-2.75c-5.73 0-9.7 3.45-9.7 8.53 0 10.35 19.29 14.03 19.29 23.27 0 3.22-2.63 5.61-6.26 5.61h-3.92c-3.39 0-6.2-2.81-6.2-6.2v-2.63h-3.51v2.63a9.67 9.67 0 0 0 9.7 9.7h3.92c5.55 0 9.76-3.97 9.76-9.12.01-11.69-19.28-15.84-19.28-23.26zm428.97-280.17h34l.01-1153.21h47.9V41.16h-129.81v34.01h47.9zm168.61-.29v.11h20.58v-.15l.14.15 46.16-46.16h.04V667.01h-.21l-32.24-32.24 32.43-32.42h.02V87.32h-.04l-46.16-46.16-.14.15v-.15h-20.58v.11l-46.05 46.06.02.02v375.18h34l.01-361.14 22.44-22.44 22.49 22.5v486.8l-36.23 36.22.15.14h-.15v20.58h.11l36.12 36.11v486.61l-22.49 22.5-22.44-22.44-.01-361.14h-34v375.18l-.02.02zm228.4-561.08l-32.24-32.24 32.42-32.42h.02l.01-515.03h-.04l-46.16-46.16-.14.14v-.15h-46.34v.02h-20.27l-.02 1187.22h34.01V651.91h15.55l29.39 29.39.01 547.08h34.01l-.01-561.37h-.2zm-33.81-78.76l-29.65 29.65h-15.29l.02-542.74h18.64l26.29 26.29-.01 486.8zm0 767.97H833.97l19.38-19.38h29.5v-34.01h-43.6v.01l-59.95 59.95.15.15h-.16v20.57h.55l-.54.54 59.95 59.95v.01h43.6V1410h-29.5l-19.77-19.77h706.11v-.44h0V1268.9h-34zM960.35 256.56l32.01 971.82h34.01 0 26.92l.01-1187.21h-34.01l-.01 971.83-32.01-971.83h-34.01v.02h-26.91l-.01 1187.19h34.01zm-77.5 971.63v-34.01h-68.81v-542.4h47.88v-34.01h-47.88V75.17h68.81V41.16h-102.8v.01h-.01l-.01 1187.21z"/></g><defs ><path id="B" d="M129.82 1429.87l-9.59 27.53v13.39h3.51v-10.87h16.37v10.87h3.51v-13.39l-9.59-27.53h-4.21zm-5.49 26.54l7.37-21.34h.53l7.37 21.34h-15.27z"/><path id="C" d="M238.31 1461.38c0 3.21-2.63 5.85-5.85 5.85h-4.68c-3.21 0-5.84-2.63-5.84-5.85v-31.51h-3.51v31.51c0 5.14 4.21 9.41 9.35 9.41h4.68c5.14 0 9.35-4.27 9.35-9.41v-31.51h-3.51v31.51z"/><path id="D" d="M260.76 1429.87l-9.59 27.53v13.39h3.51v-10.87h16.37v10.87h3.51v-13.39l-9.59-27.53h-4.21zm-5.5 26.54l7.37-21.34h.53l7.37 21.34h-15.27z"/><path id="E" d="M690.73 1429.87h-4.68c-5.14 0-9.35 4.15-9.35 9.35v22.16c0 5.14 4.21 9.41 9.35 9.41h4.68c5.2 0 9.35-4.27 9.35-9.41v-3.21h-3.51v3.21c0 3.21-2.63 5.85-5.85 5.85h-4.68c-3.21 0-5.84-2.63-5.84-5.85v-22.16a5.79 5.79 0 0 1 5.84-5.85h4.68a5.79 5.79 0 0 1 5.85 5.85v3.22h3.51v-3.22c0-5.2-4.15-9.35-9.35-9.35z"/></defs></svg>