<?xml version="1.0" encoding="utf-8"?>
<svg version="1.1" id="Layer_1" xmlns="http://www.w3.org/2000/svg" xmlns:xlink="http://www.w3.org/1999/xlink" x="0px" y="0px"
	 viewBox="0 0 2319.83 1574.27" style="enable-background:new 0 0 2319.83 1574.27;" xml:space="preserve">
<style type="text/css">
	.st0{fill:#FFFFFF;}
</style>
<g>
	<g>
		<polygon class="st0" points="657.99,1400.65 657.99,1359.73 649.81,1359.73 649.81,1383.99 640.4,1359.73 629.93,1359.73 
			629.93,1400.65 638.12,1400.65 638.12,1376.39 647.53,1400.65 		"/>
		<polygon class="st0" points="693.06,1377.44 675.52,1377.44 675.52,1367.91 695.4,1367.91 695.4,1359.73 667.34,1359.73 
			667.34,1377.44 667.34,1400.65 675.52,1400.65 675.52,1385.62 693.06,1385.62 		"/>
		<polygon class="st0" points="714.69,1400.65 722.87,1400.65 722.87,1367.91 732.81,1367.91 732.81,1359.73 722.87,1359.73 
			704.75,1359.73 704.75,1367.91 714.69,1367.91 		"/>
		<polygon class="st0" points="107.38,1442.55 99.49,1465.59 98.96,1465.59 91.01,1442.55 91.01,1429.87 87.5,1429.87 87.5,1443.2 
			97.09,1470.79 101.3,1470.79 110.89,1443.2 110.89,1429.87 107.38,1429.87 		"/>
		<path class="st0" d="M129.82,1429.87l-9.59,27.53v13.39h3.51v-10.87h16.37v10.87h3.51v-13.39l-9.59-27.53H129.82z M124.33,1456.41
			l7.37-21.34h0.53l7.37,21.34H124.33z"/>
		<polygon class="st0" points="172.85,1467.28 172.32,1467.28 159.46,1429.87 152.97,1429.87 152.97,1470.79 156.48,1470.79 
			156.48,1433.38 157,1433.38 169.86,1470.79 176.35,1470.79 176.35,1429.87 172.85,1429.87 		"/>
		<path class="st0" d="M199.73,1429.87h-4.68c-5.14,0-9.35,4.15-9.35,9.35v22.16c0,5.14,4.21,9.41,9.35,9.41h4.68
			c5.2,0,9.35-4.27,9.35-9.41v-3.21v-8.54h-12.27v3.51h8.77v5.03v3.21c0,3.21-2.63,5.85-5.85,5.85h-4.68
			c-3.21,0-5.84-2.63-5.84-5.85v-22.16c0-3.27,2.57-5.85,5.84-5.85h4.68c3.27,0,5.85,2.57,5.85,5.85v3.22h3.51v-3.22
			C209.08,1434.02,204.94,1429.87,199.73,1429.87z"/>
		<path class="st0" d="M238.31,1461.38c0,3.21-2.63,5.85-5.85,5.85h-4.68c-3.21,0-5.84-2.63-5.84-5.85v-31.51h-3.51v31.51
			c0,5.14,4.21,9.41,9.35,9.41h4.68c5.14,0,9.35-4.27,9.35-9.41v-31.51h-3.51V1461.38z"/>
		<path class="st0" d="M260.76,1429.87l-9.59,27.53v13.39h3.51v-10.87h16.37v10.87h3.51v-13.39l-9.59-27.53H260.76z M255.26,1456.41
			l7.37-21.34h0.53l7.37,21.34H255.26z"/>
		<path class="st0" d="M297.93,1429.87h-10.52h-3.51v40.92h3.51v-18.71h7.54l8.48,18.71h3.86l-8.54-18.76
			c4.79-0.35,8.54-4.38,8.54-9.29v-3.51C307.29,1434.02,303.14,1429.87,297.93,1429.87z M303.78,1442.73c0,3.27-2.57,5.85-5.85,5.85
			h-10.52v-15.2h10.52c3.27,0,5.85,2.57,5.85,5.85V1442.73z"/>
		<path class="st0" d="M330.67,1429.87h-10.52h-3.51v40.92h2.63h11.4c5.14,0,9.35-4.27,9.35-9.41v-22.16
			C340.02,1434.02,335.81,1429.87,330.67,1429.87z M336.51,1461.38c0,3.21-2.63,5.85-5.85,5.85h-10.52v-33.85h10.52
			c3.27,0,5.85,2.57,5.85,5.85V1461.38z"/>
		<polygon class="st0" points="349.37,1429.87 349.37,1433.38 359.31,1433.38 359.31,1467.28 349.37,1467.28 349.37,1470.79 
			359.31,1470.79 372.75,1470.79 372.75,1467.28 362.81,1467.28 362.81,1433.38 372.75,1433.38 372.75,1429.87 362.81,1429.87 		"/>
		<path class="st0" d="M391.69,1429.87l-9.59,27.53v13.39h3.51v-10.87h16.37v10.87h3.51v-13.39l-9.59-27.53H391.69z M386.19,1456.41
			l7.37-21.34h0.53l7.37,21.34H386.19z"/>
		<path class="st0" d="M457.15,1429.87l-9.59,27.53v13.39h3.51v-10.87h16.37v10.87h3.51v-13.39l-9.59-27.53H457.15z M451.66,1456.41
			l7.37-21.34h0.53l7.37,21.34H451.66z"/>
		<path class="st0" d="M494.33,1429.87h-10.52h-3.51v40.92h3.51v-18.71h7.54l8.48,18.71h3.86l-8.54-18.76
			c4.79-0.35,8.54-4.38,8.54-9.29v-3.51C503.68,1434.02,499.53,1429.87,494.33,1429.87z M500.18,1442.73c0,3.27-2.57,5.85-5.85,5.85
			h-10.52v-15.2h10.52c3.27,0,5.85,2.57,5.85,5.85V1442.73z"/>
		<polygon class="st0" points="513.03,1429.87 513.03,1433.38 522.97,1433.38 522.97,1470.79 526.48,1470.79 526.48,1433.38 
			536.42,1433.38 536.42,1429.87 526.48,1429.87 		"/>
		<polygon class="st0" points="568.45,1415.72 563.6,1415.72 555.65,1424.61 559.62,1424.61 		"/>
		<polygon class="st0" points="545.77,1429.87 545.77,1433.38 555.71,1433.38 555.71,1467.28 545.77,1467.28 545.77,1470.79 
			555.71,1470.79 569.15,1470.79 569.15,1467.28 559.21,1467.28 559.21,1433.38 569.15,1433.38 569.15,1429.87 559.21,1429.87 		"/>
		<path class="st0" d="M582.59,1438.4c0-3.04,2.4-5.03,6.2-5.03h2.75c3.45,0,6.25,2.75,6.25,6.2v1.75h3.51v-1.75
			c0-5.38-4.38-9.7-9.76-9.7h-2.75c-5.73,0-9.7,3.45-9.7,8.54c0,10.35,19.29,14.03,19.29,23.27c0,3.22-2.63,5.61-6.26,5.61h-3.92
			c-3.39,0-6.2-2.81-6.2-6.2v-2.63h-3.51v2.63c0,5.38,4.32,9.7,9.7,9.7h3.92c5.55,0,9.76-3.97,9.76-9.12
			C601.88,1449.98,582.59,1445.83,582.59,1438.4z"/>
		<polygon class="st0" points="611.23,1429.87 611.23,1433.38 621.17,1433.38 621.17,1470.79 624.68,1470.79 624.68,1433.38 
			634.62,1433.38 634.62,1429.87 624.68,1429.87 		"/>
		<polygon class="st0" points="643.97,1429.87 643.97,1433.38 653.9,1433.38 653.9,1467.28 643.97,1467.28 643.97,1470.79 
			653.9,1470.79 667.35,1470.79 667.35,1467.28 657.41,1467.28 657.41,1433.38 667.35,1433.38 667.35,1429.87 657.41,1429.87 		"/>
		<path class="st0" d="M690.73,1429.87h-4.68c-5.14,0-9.35,4.15-9.35,9.35v22.16c0,5.14,4.21,9.41,9.35,9.41h4.68
			c5.2,0,9.35-4.27,9.35-9.41v-3.21h-3.51v3.21c0,3.21-2.63,5.85-5.85,5.85h-4.68c-3.21,0-5.84-2.63-5.84-5.85v-22.16
			c0-3.27,2.57-5.85,5.84-5.85h4.68c3.27,0,5.85,2.57,5.85,5.85v3.22h3.51v-3.22C700.08,1434.02,695.93,1429.87,690.73,1429.87z"/>
		<path class="st0" d="M719.02,1429.87l-9.59,27.53v13.39h3.51v-10.87h16.37v10.87h3.51v-13.39l-9.59-27.53H719.02z M713.52,1456.41
			l7.37-21.34h0.53l7.37,21.34H713.52z"/>
		<polygon class="st0" points="330.08,1515.97 326.57,1515.97 326.57,1523.57 318.97,1523.57 318.97,1527.08 326.57,1527.08 
			326.57,1534.68 330.08,1534.68 330.08,1527.08 337.68,1527.08 337.68,1523.57 330.08,1523.57 		"/>
		<path class="st0" d="M396.13,1500.01h-4.68c-5.14,0-9.35,4.15-9.35,9.35v22.16c0,5.14,4.21,9.41,9.35,9.41h4.68
			c5.2,0,9.35-4.27,9.35-9.41v-3.21h-3.51v3.21c0,3.21-2.63,5.85-5.85,5.85h-4.68c-3.21,0-5.84-2.63-5.84-5.85v-22.16
			c0-3.27,2.57-5.85,5.84-5.85h4.68c3.27,0,5.85,2.57,5.85,5.85v3.22h3.51v-3.22C405.48,1504.16,401.33,1500.01,396.13,1500.01z"/>
		<path class="st0" d="M428.86,1500.01h-4.68c-5.14,0-9.35,4.15-9.35,9.35v22.16c0,5.14,4.21,9.41,9.35,9.41h4.68
			c5.2,0,9.35-4.27,9.35-9.41v-22.16C438.21,1504.16,434.07,1500.01,428.86,1500.01z M434.71,1531.52c0,3.21-2.63,5.85-5.85,5.85
			h-4.68c-3.21,0-5.84-2.63-5.84-5.85v-22.16c0-3.27,2.57-5.85,5.84-5.85h4.68c3.27,0,5.85,2.57,5.85,5.85V1531.52z"/>
		<polygon class="st0" points="459.26,1517.55 452.01,1500.01 447.57,1500.01 447.57,1540.93 451.07,1540.93 451.07,1506.21 
			458.2,1523.04 460.31,1523.04 467.44,1506.21 467.44,1540.93 470.95,1540.93 470.95,1500.01 466.56,1500.01 		"/>
		<path class="st0" d="M500.17,1531.52c0,3.21-2.63,5.85-5.85,5.85h-4.68c-3.21,0-5.84-2.63-5.84-5.85v-31.51h-3.51v31.51
			c0,5.14,4.21,9.41,9.35,9.41h4.68c5.14,0,9.35-4.27,9.35-9.41v-31.51h-3.51V1531.52z"/>
		<polygon class="st0" points="532.91,1537.42 532.38,1537.42 519.52,1500.01 513.03,1500.01 513.03,1540.93 516.54,1540.93 
			516.54,1503.52 517.06,1503.52 529.93,1540.93 536.42,1540.93 536.42,1500.01 532.91,1500.01 		"/>
		<polygon class="st0" points="545.77,1500.01 545.77,1503.52 555.7,1503.52 555.7,1537.42 545.77,1537.42 545.77,1540.93 
			555.7,1540.93 569.15,1540.93 569.15,1537.42 559.21,1537.42 559.21,1503.52 569.15,1503.52 569.15,1500.01 559.21,1500.01 		"/>
		<path class="st0" d="M592.53,1500.01h-10.52h-3.51v40.92h2.63h11.4c5.14,0,9.35-4.27,9.35-9.41v-22.16
			C601.88,1504.16,597.67,1500.01,592.53,1500.01z M598.37,1531.52c0,3.21-2.63,5.85-5.85,5.85h-10.52v-33.85h10.52
			c3.27,0,5.85,2.57,5.85,5.85V1531.52z"/>
		<path class="st0" d="M620.82,1500.01l-9.59,27.53v13.39h3.51v-10.87h16.37v10.87h3.51v-13.39l-9.59-27.53H620.82z M615.32,1526.55
			l7.37-21.34h0.53l7.37,21.34H615.32z"/>
		<path class="st0" d="M657.99,1500.01h-10.52h-3.51v40.92h2.63h11.4c5.14,0,9.35-4.27,9.35-9.41v-22.16
			C667.35,1504.16,663.14,1500.01,657.99,1500.01z M663.84,1531.52c0,3.21-2.63,5.85-5.85,5.85h-10.52v-33.85h10.52
			c3.27,0,5.85,2.57,5.85,5.85V1531.52z"/>
		<polygon class="st0" points="676.7,1503.52 676.7,1520.94 676.7,1540.93 700.08,1540.93 700.08,1537.42 680.21,1537.42 
			680.21,1520.94 697.74,1520.94 697.74,1517.43 680.21,1517.43 680.21,1503.52 700.08,1503.52 700.08,1500.01 676.7,1500.01 		"/>
		<path class="st0" d="M713.52,1508.55c0-3.04,2.4-5.03,6.2-5.03h2.75c3.45,0,6.25,2.75,6.25,6.2v1.75h3.51v-1.75
			c0-5.38-4.38-9.7-9.76-9.7h-2.75c-5.73,0-9.7,3.45-9.7,8.53c0,10.35,19.29,14.03,19.29,23.27c0,3.22-2.63,5.61-6.26,5.61h-3.92
			c-3.39,0-6.2-2.81-6.2-6.2v-2.63h-3.51v2.63c0,5.38,4.32,9.7,9.7,9.7h3.92c5.55,0,9.76-3.97,9.76-9.12
			C732.81,1520.12,713.52,1515.97,713.52,1508.55z"/>
		<polygon class="st0" points="1142.49,1228.38 1176.49,1228.38 1176.5,75.17 1224.4,75.17 1224.4,41.16 1094.59,41.16 
			1094.59,75.17 1142.49,75.17 		"/>
		<polygon class="st0" points="1311.1,1228.09 1311.1,1228.2 1331.68,1228.2 1331.68,1228.05 1331.82,1228.2 1377.98,1182.04 
			1378.02,1182.04 1378.02,667.01 1377.81,667.01 1345.57,634.77 1378,602.35 1378.02,602.35 1378.02,87.32 1377.98,87.32 
			1331.82,41.16 1331.68,41.31 1331.68,41.16 1311.1,41.16 1311.1,41.27 1265.05,87.33 1265.07,87.35 1265.07,462.53 
			1299.07,462.53 1299.08,101.39 1321.52,78.95 1344.01,101.45 1344.01,588.25 1307.78,624.47 1307.93,624.61 1307.78,624.61 
			1307.78,645.19 1307.89,645.19 1344.01,681.3 1344.01,1167.91 1321.52,1190.41 1299.08,1167.97 1299.07,806.83 1265.07,806.83 
			1265.07,1182.01 1265.05,1182.03 		"/>
		<path class="st0" d="M1539.5,667.01l-32.24-32.24l32.42-32.42h0.02l0.01-515.03h-0.04l-46.16-46.16l-0.14,0.14v-0.15l-46.34,0
			v0.02h-20.27l-0.02,1187.22h34.01l0-576.48h15.55l29.39,29.39l0.01,547.08l34.01,0l-0.01-561.37H1539.5z M1505.69,588.25
			l-29.65,29.65h-15.29l0.02-542.74l18.64,0l26.29,26.29L1505.69,588.25z"/>
		<polygon class="st0" points="1505.69,1356.22 833.97,1356.22 853.35,1336.84 882.85,1336.84 882.85,1302.83 839.25,1302.83 
			839.25,1302.84 779.3,1362.79 779.45,1362.94 779.29,1362.94 779.29,1383.51 779.84,1383.51 779.3,1384.05 839.25,1444 
			839.25,1444.01 882.85,1444.01 882.85,1410 853.35,1410 833.58,1390.23 1539.69,1390.23 1539.69,1389.79 1539.69,1389.79 
			1539.69,1268.9 1505.69,1268.9 		"/>
		<polygon class="st0" points="960.35,256.56 992.36,1228.38 1026.37,1228.38 1026.37,1228.38 1053.29,1228.38 1053.3,41.17 
			1019.29,41.17 1019.28,1013 987.27,41.17 953.26,41.17 953.26,41.19 926.35,41.19 926.34,1228.38 960.35,1228.38 		"/>
		<polygon class="st0" points="882.85,1228.19 882.85,1194.18 814.04,1194.18 814.04,651.78 861.92,651.78 861.92,617.77 
			814.04,617.77 814.04,75.17 882.85,75.17 882.85,41.16 780.05,41.16 780.05,41.17 780.04,41.17 780.03,1228.38 		"/>
	</g>
</g>
</svg>
